<svg xmlns="http://www.w3.org/2000/svg"  viewBox="0 0 64 64" width="100px" height="100px"><path fill="#ed7899" d="M8,15L39,4l17,4v48l-17,4L8,49l31,4V13l-20,4v28L8,49V15z"/><path fill="#e0678f" d="M19 45L8 49 8 15 19 17z"/><path fill="#f98cb3" d="M56 56L39 60 39 4 56 8z"/><path fill="#8d6c9f" d="M39,61c-0.113,0-0.227-0.02-0.334-0.058L7.67,49.944c-0.015-0.006-0.029-0.011-0.043-0.017 c-0.21-0.084-0.378-0.233-0.487-0.417c0,0,0,0,0-0.001c0,0-0.001-0.001-0.001-0.002c0,0,0,0-0.001-0.001c0,0,0-0.002-0.001-0.002 c0-0.001,0-0.001,0-0.001c-0.001-0.001-0.001-0.001-0.002-0.002l0,0c-0.008-0.015-0.017-0.029-0.023-0.044 c-0.001,0-0.001-0.001-0.001-0.001s0-0.001-0.001-0.002v-0.001l-0.001-0.001C7.035,49.31,6.997,49.148,7,48.982V15 c0-0.424,0.267-0.801,0.666-0.942l31-11c0.181-0.064,0.375-0.075,0.563-0.031l17,4C56.681,7.133,57,7.536,57,8v48 c0,0.464-0.319,0.867-0.771,0.974l-17,4C39.153,60.991,39.077,61,39,61z M17.164,51.19l21.894,7.769L55,55.208V8.792L39.058,5.041 L9,15.706v31.866l9-3.272V17c0-0.477,0.337-0.887,0.804-0.98l20-4c0.296-0.057,0.6,0.018,0.83,0.207C39.865,12.417,40,12.7,40,13v40 c0,0.287-0.124,0.562-0.34,0.751c-0.217,0.189-0.503,0.272-0.788,0.241L17.164,51.19z M12.206,48.534L38,51.862V14.22l-18,3.6V45 c0,0.421-0.263,0.796-0.658,0.939L12.206,48.534z"/><path fill="#8d6c9f" d="M49 42c0 .552.447 1 1 1h2c.553 0 1-.448 1-1s-.447-1-1-1h-2C49.447 41 49 41.448 49 42zM49 37c0 .552.447 1 1 1h2c.553 0 1-.448 1-1s-.447-1-1-1h-2C49.447 36 49 36.448 49 37zM49 32c0 .552.447 1 1 1h2c.553 0 1-.448 1-1s-.447-1-1-1h-2C49.447 31 49 31.448 49 32zM49 27c0 .552.447 1 1 1h2c.553 0 1-.448 1-1s-.447-1-1-1h-2C49.447 26 49 26.448 49 27zM49 22c0 .552.447 1 1 1h2c.553 0 1-.448 1-1s-.447-1-1-1h-2C49.447 21 49 21.448 49 22zM49 17c0 .552.447 1 1 1h2c.553 0 1-.448 1-1s-.447-1-1-1h-2C49.447 16 49 16.448 49 17zM49 12c0 .552.447 1 1 1h2c.553 0 1-.448 1-1s-.447-1-1-1h-2C49.447 11 49 11.448 49 12zM49 47c0 .552.447 1 1 1h2c.553 0 1-.448 1-1s-.447-1-1-1h-2C49.447 46 49 46.448 49 47zM49 52c0 .552.447 1 1 1h2c.553 0 1-.448 1-1s-.447-1-1-1h-2C49.447 51 49 51.448 49 52z"/></svg>